<svg preserveAspectRatio="none" width="100%" height="100%" overflow="visible" style="display: block;" viewBox="0 0 14.9998 14.9998" fill="none" xmlns="http://www.w3.org/2000/svg">
<g id="arrow-up">
<path id="Vector" d="M11.2936 6.45019C11.1749 6.45019 11.0561 6.40644 10.9624 6.31269L7.4999 2.85023L4.03744 6.31269C3.8562 6.49394 3.5562 6.49394 3.37495 6.31269C3.19371 6.13144 3.19371 5.83144 3.37495 5.6502L7.16865 1.85649C7.3499 1.67525 7.6499 1.67525 7.83115 1.85649L11.6248 5.6502C11.8061 5.83144 11.8061 6.13144 11.6248 6.31269C11.5373 6.40644 11.4123 6.45019 11.2936 6.45019Z" fill="var(--fill-0, #00A65F)"/>
<path id="Vector_2" d="M7.4999 13.2811C7.24366 13.2811 7.03116 13.0686 7.03116 12.8123V2.29372C7.03116 2.03747 7.24366 1.82498 7.4999 1.82498C7.75615 1.82498 7.96865 2.03747 7.96865 2.29372V12.8123C7.96865 13.0686 7.75615 13.2811 7.4999 13.2811Z" fill="var(--fill-0, #00A65F)"/>
<g id="Vector_3" opacity="0">
</g>
</g>
</svg>
