<svg preserveAspectRatio="none" width="100%" height="100%" overflow="visible" style="display: block;" viewBox="0 0 14.9998 14.9998" fill="none" xmlns="http://www.w3.org/2000/svg">
<g id="arrow-down">
<path id="Vector" d="M7.4999 13.2811C7.38115 13.2811 7.26241 13.2373 7.16866 13.1436L3.37496 9.34988C3.19371 9.16863 3.19371 8.86864 3.37496 8.68739C3.5562 8.50614 3.8562 8.50614 4.03745 8.68739L7.4999 12.1498L10.9624 8.68739C11.1436 8.50614 11.4436 8.50614 11.6248 8.68739C11.8061 8.86864 11.8061 9.16863 11.6248 9.34988L7.83115 13.1436C7.7374 13.2373 7.61865 13.2811 7.4999 13.2811Z" fill="var(--fill-0, #00C579)"/>
<path id="Vector_2" d="M7.4999 13.1748C7.24366 13.1748 7.03116 12.9623 7.03116 12.7061V2.18747C7.03116 1.93123 7.24366 1.71873 7.4999 1.71873C7.75615 1.71873 7.96865 1.93123 7.96865 2.18747V12.7061C7.96865 12.9623 7.75615 13.1748 7.4999 13.1748Z" fill="var(--fill-0, #00C579)"/>
<g id="Vector_3" opacity="0">
</g>
</g>
</svg>
