<svg preserveAspectRatio="none" width="100%" height="100%" overflow="visible" style="display: block;" viewBox="0 0 140.543 140.667" fill="none" xmlns="http://www.w3.org/2000/svg">
<g id="1" opacity="0.1">
<path id="Subtract" fill-rule="evenodd" clip-rule="evenodd" d="M81.1802 65.3555C77.6324 67.4098 77.6324 72.532 81.1802 74.5863L127.23 101.251C129.83 102.757 133.18 101.825 134.403 99.0805C138.349 90.2273 140.543 80.4168 140.543 70.0924C140.543 59.6875 138.314 49.8046 134.31 40.8975C133.081 38.1628 129.739 37.2385 127.144 38.7409L81.1802 65.3555Z" fill="var(--fill-0, #33CFFF)"/>
<path id="Subtract_2" d="M71.876 133.867V81.9329C71.876 77.821 76.3328 75.2558 79.8884 77.3213L124.51 103.243C127.091 104.743 127.954 108.083 126.212 110.506C114.973 126.146 97.4297 136.896 77.3319 138.984C74.3509 139.293 71.876 136.864 71.876 133.867Z" fill="var(--fill-0, #33DE9F)"/>
<path id="Subtract_3" fill-rule="evenodd" clip-rule="evenodd" d="M59.2568 65.3576C62.7996 67.4128 62.7996 72.529 59.2568 74.5842L13.3019 101.243C10.7001 102.752 7.34638 101.819 6.12422 99.0708C2.18833 90.2202 1.38425e-09 80.4131 1.38425e-09 70.0924C1.38425e-09 59.6913 2.22258 49.8118 6.21657 40.9072C7.44497 38.1685 10.7918 37.2429 13.3881 38.749L59.2568 65.3576Z" fill="var(--fill-0, #FFBE0A)"/>
<path id="Subtract_4" d="M63.0867 140.323C42.4367 138.222 24.4108 127.214 12.8863 111.189C11.1399 108.761 12.0047 105.413 14.593 103.913L60.5363 77.3038C64.0918 75.2445 68.5426 77.8101 68.5426 81.9189V135.2C68.5426 138.197 66.0682 140.626 63.0867 140.323Z" fill="var(--fill-0, #FF6D6B)"/>
<path id="Subtract_5" d="M77.331 0.340439C97.9271 2.41547 115.918 13.2629 127.47 29.0686C129.247 31.5004 128.38 34.8781 125.768 36.3783L79.8657 62.7442C76.3101 64.7864 71.876 62.2198 71.876 58.1194V5.46512C71.876 2.46863 74.3496 0.0400666 77.331 0.340439Z" fill="var(--fill-0, #264BC7)"/>
<path id="Subtract_6" d="M63.0865 0.346916C42.7412 2.43895 24.9719 13.2895 13.561 29.0916C11.8098 31.5167 12.6698 34.8663 15.2561 36.3691L60.5297 62.6771C64.0853 64.7432 68.5426 62.178 68.5426 58.0658V5.46667C68.5426 2.46959 66.0679 0.0403529 63.0865 0.346916Z" fill="var(--fill-0, #FF47AC)"/>
</g>
</svg>
