<svg preserveAspectRatio="none" width="100%" height="100%" overflow="visible" style="display: block;" viewBox="0 0 112.667 118.667" fill="none" xmlns="http://www.w3.org/2000/svg">
<g id="2">
<path id="Subtract" fill-rule="evenodd" clip-rule="evenodd" d="M70.5837 56.7055C67.0504 58.7626 67.0504 63.8668 70.5837 65.9238L95.725 80.5605C98.3299 82.077 101.704 81.1423 102.806 78.337C104.867 73.0933 106 67.3767 106 61.3933C106 55.356 104.847 49.5903 102.751 44.3079C101.641 41.5121 98.2739 40.5849 95.6744 42.0983L70.5837 56.7055Z" fill="var(--fill-0, #33CFFF)"/>
<path id="Subtract_2" d="M61.3334 113.199V73.3011C61.3334 69.1814 65.8051 66.6172 69.3606 68.6981L103.34 88.5842C105.904 90.0851 106.766 93.4101 105.001 95.8C96.0287 107.944 82.392 116.343 66.7844 118.265C63.8094 118.631 61.3334 116.197 61.3334 113.199Z" fill="var(--fill-0, #33DE9F)"/>
<path id="Subtract_3" fill-rule="evenodd" clip-rule="evenodd" d="M48.7142 56.6957C52.2571 58.7509 52.257 63.867 48.7142 65.9223L11.9609 87.243C9.35917 88.7523 6.00145 87.8197 4.81905 85.0541C1.71764 77.7999 4.16568e-05 69.8072 4.16568e-05 61.4114C4.16568e-05 52.947 1.74585 44.8922 4.89541 37.5909C6.08429 34.8348 9.43506 33.9097 12.0314 35.4158L48.7142 56.6957Z" fill="var(--fill-0, #FFBE0A)"/>
<path id="Subtract_4" d="M52.5527 110.222C39.7771 108.443 28.5982 101.613 21.0564 91.7921C19.2419 89.4293 20.1087 86.0896 22.6825 84.5892L49.9806 68.6752C53.5362 66.6025 58 69.1672 58 73.2828V105.2C58 108.197 55.5213 110.636 52.5527 110.222Z" fill="var(--fill-0, #FF6D6B)"/>
<path id="Subtract_5" d="M66.7853 0.368602C84.2697 2.31489 99.5547 11.4625 109.547 24.7471C111.362 27.1605 110.491 30.5512 107.87 32.0505L69.3146 54.102C65.7591 56.1356 61.3334 53.5684 61.3334 49.4724V5.46471C61.3334 2.46845 63.8074 0.0371179 66.7853 0.368602Z" fill="var(--fill-0, #264BC7)"/>
<path id="Subtract_6" d="M52.5541 13.7779C40.1135 15.5139 29.2155 22.0617 21.8044 31.4785C19.9463 33.8396 20.8164 37.2157 23.4189 38.7171L50.0016 54.0526C53.5572 56.1038 58 53.5377 58 49.4329V18.7992C58 15.8025 55.5221 13.3637 52.5541 13.7779Z" fill="var(--fill-0, #FF47AC)"/>
</g>
</svg>
