<svg preserveAspectRatio="none" width="100%" height="100%" overflow="visible" style="display: block;" viewBox="0 0 75.3887 44.2302" fill="none" xmlns="http://www.w3.org/2000/svg">
<g id="Elfie">
<path d="M26.6572 26.6931C27.0254 26.5522 27.3322 26.4818 27.5777 26.4818C27.9704 26.4818 28.265 26.6227 28.4613 26.9044C28.6577 27.1861 28.7559 27.55 28.7559 27.9961C28.7559 28.7004 28.5718 29.299 28.2036 29.792C27.8599 30.285 27.2586 30.7311 26.3994 31.1302C24.9512 31.7876 23.0734 32.3158 20.7661 32.7149C18.4587 33.0905 16.1882 33.2783 13.9545 33.2783C10.8617 33.2783 8.27207 32.9497 6.18564 32.2923C4.09922 31.6115 2.54053 30.6841 1.50959 29.5103C0.503197 28.3365 0 27.01 0 25.531C0 23.512 0.67502 21.7982 2.02506 20.3896C3.39965 18.9575 5.41244 17.9245 8.06343 17.2906C6.6152 16.8915 5.49835 16.1872 4.71287 15.1777C3.95194 14.1682 3.57147 13.0413 3.57147 11.7971C3.57147 10.1068 4.12376 8.61598 5.22834 7.32475C6.35747 6.01005 7.86706 5.00055 9.75712 4.29625C11.6472 3.59195 13.7213 3.23979 15.9796 3.23979C19.0233 3.23979 21.3061 3.87367 22.828 5.14141C24.3498 6.38568 25.1108 8.00558 25.1108 10.0011C25.1108 11.3862 24.8408 12.5131 24.3007 13.3818C23.7853 14.2269 23.0366 14.6495 22.0548 14.6495C21.3675 14.6495 20.8275 14.5086 20.4347 14.2269C20.042 13.9217 19.8456 13.4757 19.8456 12.8888C19.8456 12.4896 19.907 12.0553 20.0297 11.5858C20.1524 10.8111 20.2138 10.2828 20.2138 10.0011C20.2138 9.15594 19.8824 8.47512 19.2197 7.95863C18.5569 7.41866 17.4524 7.14868 15.9059 7.14868C13.8195 7.14868 12.1504 7.57126 10.8985 8.41642C9.64666 9.26159 9.02073 10.4002 9.02073 11.8323C9.02073 12.9357 9.48711 13.8513 10.4199 14.5791C11.3772 15.2834 12.9236 15.6707 15.0591 15.7412C15.5991 15.7647 15.9796 15.882 16.2005 16.0933C16.4214 16.3046 16.5319 16.6568 16.5319 17.1498C16.5319 18.6993 15.7955 19.4857 14.3227 19.5092C12.2854 19.5562 10.5917 19.8261 9.24164 20.3192C7.91615 20.8122 6.94658 21.446 6.33292 22.2208C5.74381 22.972 5.44926 23.782 5.44926 24.6506C5.44926 26.1062 6.1611 27.2096 7.58478 27.9608C9.00846 28.6886 11.2667 29.0525 14.3595 29.0525C16.3969 29.0525 18.5447 28.8295 20.8029 28.3834C23.0857 27.9139 25.0371 27.3504 26.6572 26.6931Z" fill="var(--fill-0, #14142B)"/>
<path d="M39.8218 25.2493C40.1409 25.2493 40.3864 25.3901 40.5582 25.6719C40.7546 25.9536 40.8527 26.3409 40.8527 26.834C40.8527 27.773 40.6196 28.5008 40.1532 29.0173C39.0977 30.2616 37.944 31.2828 36.6922 32.081C35.4649 32.8792 34.0657 33.2783 32.4948 33.2783C30.3347 33.2783 28.7269 32.3393 27.6714 30.4611C26.6405 28.583 26.125 26.1531 26.125 23.1716C26.125 20.3074 26.5055 17.0441 27.2664 13.3818C28.0519 9.71939 29.1933 6.5735 30.6906 3.9441C32.2125 1.3147 34.0166 0 36.1031 0C37.2813 0 38.2018 0.528228 38.8645 1.58468C39.5518 2.61766 39.8954 4.10844 39.8954 6.05701C39.8954 8.85074 39.0854 12.0905 37.4654 15.7764C35.8453 19.4622 33.6484 23.1129 30.8747 26.7283C31.0465 27.6909 31.3288 28.3834 31.7216 28.806C32.1143 29.2051 32.6298 29.4047 33.268 29.4047C34.2744 29.4047 35.158 29.1347 35.919 28.5947C36.6799 28.0313 37.6495 27.0805 38.8277 25.7423C39.1222 25.4136 39.4536 25.2493 39.8218 25.2493ZM35.293 3.4863C34.7285 3.4863 34.0903 4.46059 33.3784 6.40916C32.6666 8.35773 32.0407 10.7758 31.5006 13.6635C30.9606 16.5511 30.6661 19.3214 30.617 21.9743C32.3598 19.2275 33.7466 16.4807 34.7776 13.7339C35.8085 10.9637 36.324 8.4399 36.324 6.16265C36.324 4.37842 35.9803 3.4863 35.293 3.4863Z" fill="var(--fill-0, #14142B)"/>
<path d="M63.1347 25.2493C63.4538 25.2493 63.6993 25.3901 63.8711 25.6719C64.0675 25.9536 64.1657 26.3409 64.1657 26.834C64.1657 27.773 63.9325 28.5008 63.4661 29.0173C62.4597 30.1911 61.3429 31.2006 60.1156 32.0458C58.9128 32.8675 57.6978 33.2783 56.4705 33.2783C54.8749 33.2783 53.709 32.7384 52.9726 31.6584C52.2608 30.5785 51.9049 29.1464 51.9049 27.3622C51.9049 26.4466 52.003 25.3197 52.1994 23.9815C52.4203 22.6434 52.7026 21.3287 53.0463 20.0374C50.5916 20.0374 47.6829 20.1431 44.3201 20.3544C43.7801 23.6411 43.5101 26.7048 43.5101 29.5455C43.5101 31.7289 43.6328 34.0061 43.8783 36.3773C44.1483 38.7719 44.541 39.9692 45.0565 39.9692C45.3019 39.9692 45.5597 39.5584 45.8297 38.7367C46.0997 37.915 46.3206 36.7881 46.4924 35.356C46.6642 33.9239 46.7502 32.3393 46.7502 30.602C46.7502 28.7004 46.6397 26.6461 46.4188 24.4393C46.3697 23.782 46.4802 23.3007 46.7502 22.9955C47.0447 22.6668 47.4743 22.5025 48.0388 22.5025C48.5543 22.5025 48.9348 22.6316 49.1802 22.8899C49.4257 23.1481 49.573 23.5824 49.6221 24.1928C49.7448 25.9066 49.8062 27.9491 49.8062 30.3203C49.8062 34.147 49.3152 37.422 48.3334 40.1453C47.3761 42.8686 45.8788 44.2302 43.8414 44.2302C42.0987 44.2302 40.8468 43.0212 40.0859 40.6031C39.3249 38.2085 38.9445 34.6048 38.9445 29.792C38.9445 26.9513 39.1777 23.9111 39.644 20.6713C39.4722 20.6948 39.2513 20.7065 38.9813 20.7065C38.2204 20.7065 37.7049 20.5774 37.4349 20.3192C37.1894 20.0609 37.0667 19.6618 37.0667 19.1218C37.0667 18.5349 37.2262 18.0654 37.5453 17.7132C37.889 17.3611 38.5272 17.1498 39.4599 17.0794C39.6318 17.0559 39.9018 17.0441 40.27 17.0441C40.9327 13.8748 41.7796 10.9989 42.8105 8.41642C43.8414 5.83398 45.0196 3.7915 46.3451 2.28899C47.6706 0.762995 49.0698 0 50.5425 0C51.6962 0 52.5799 0.43432 53.1935 1.30296C53.8317 2.14813 54.1508 3.23979 54.1508 4.57797C54.1508 9.2968 52.1626 13.3113 48.1861 16.6216C51.1807 16.5042 53.5985 16.4455 55.4395 16.4455C56.1268 16.4455 56.6914 16.5746 57.1332 16.8328C57.575 17.0676 57.7959 17.5372 57.7959 18.2415C57.7959 18.711 57.71 19.427 57.5382 20.3896C57.3909 21.3521 57.2191 22.3147 57.0227 23.2772C56.5809 25.2728 56.36 26.5874 56.36 27.2213C56.36 27.9256 56.4582 28.4656 56.6546 28.8412C56.8509 29.2168 57.1823 29.4047 57.6487 29.4047C58.066 29.4047 58.5937 29.1347 59.2319 28.5947C59.8946 28.0313 60.8642 27.0805 62.1406 25.7423C62.4352 25.4136 62.7666 25.2493 63.1347 25.2493ZM49.843 3.38066C49.2539 3.38066 48.5052 4.60145 47.597 7.04303C46.6888 9.48462 45.8665 12.4427 45.1301 15.9173C46.3574 15.0956 47.3761 14.0743 48.1861 12.8535C49.0207 11.6327 49.6343 10.3767 50.0271 9.08551C50.4444 7.77081 50.653 6.56176 50.653 5.45835C50.653 4.07322 50.383 3.38066 49.843 3.38066ZM56.9859 14.3678C55.955 14.3678 55.1818 14.1448 54.6663 13.6987C54.1508 13.2292 53.8931 12.5836 53.8931 11.7619C53.8931 10.9402 54.2245 10.2594 54.8872 9.71938C55.5745 9.15594 56.4214 8.87422 57.4278 8.87422C58.336 8.87422 59.0724 9.08551 59.6369 9.50809C60.2015 9.93068 60.4838 10.5293 60.4838 11.3041C60.4838 12.2431 60.1647 12.9944 59.5265 13.5578C58.8883 14.0978 58.0414 14.3678 56.9859 14.3678Z" fill="var(--fill-0, #14142B)"/>
<path d="M74.3577 26.3057C74.6768 26.3057 74.9223 26.4466 75.0941 26.7283C75.2905 27.01 75.3887 27.3974 75.3887 27.8904C75.3887 28.7356 75.18 29.4634 74.7627 30.0738C74.0754 31.0833 73.1672 31.8697 72.0381 32.4332C70.9335 32.9966 69.608 33.2783 68.0616 33.2783C65.7052 33.2783 63.8765 32.6092 62.5756 31.2711C61.2746 29.9094 60.6241 28.0782 60.6241 25.7775C60.6241 24.1576 60.9801 22.6551 61.6919 21.27C62.4037 19.8614 63.3856 18.7462 64.6374 17.9245C65.9138 17.1028 67.3498 16.692 68.9453 16.692C70.369 16.692 71.5104 17.1028 72.3695 17.9245C73.2286 18.7227 73.6582 19.8144 73.6582 21.1995C73.6582 22.8194 73.0445 24.2163 71.8172 25.3901C70.6144 26.5405 68.5526 27.4561 65.6316 28.1369C66.2207 29.2168 67.2148 29.7568 68.6139 29.7568C69.6203 29.7568 70.4426 29.5338 71.0808 29.0877C71.7436 28.6417 72.5045 27.8904 73.3636 26.834C73.6582 26.4818 73.9895 26.3057 74.3577 26.3057ZM68.3194 20.1431C67.4112 20.1431 66.6379 20.6478 65.9997 21.6573C65.3861 22.6668 65.0793 23.8876 65.0793 25.3197V25.3901C66.5275 25.0615 67.6689 24.5684 68.5035 23.9111C69.338 23.2537 69.7553 22.4908 69.7553 21.6221C69.7553 21.1761 69.6203 20.8239 69.3503 20.5657C69.1048 20.2839 68.7612 20.1431 68.3194 20.1431Z" fill="var(--fill-0, #14142B)"/>
</g>
</svg>
