<svg preserveAspectRatio="none" width="100%" height="100%" overflow="visible" style="display: block;" viewBox="0 0 33.037 44.3636" fill="none" xmlns="http://www.w3.org/2000/svg">
<path id="Vector" d="M31.0106 10.6487C30.2972 10.0373 28.9296 9.5999 27.8345 9.31427L27.68 9.28303L29.1113 2.84739H29.1068L29.3519 1.76663C29.4396 1.3798 29.2142 0.989383 28.8268 0.878608C26.8347 0.308989 24.7272 1.49439e-06 22.5502 1.49439e-06C10.096 -0.0044615 0 9.98818 0 22.3105C0 33.4671 8.27479 42.7039 19.0812 44.3548C19.4803 44.4157 19.8541 44.1555 19.941 43.7681L20.0921 43.0947L21.7348 35.8819C21.8116 35.5447 22.108 35.2991 22.4594 35.2817L22.6739 35.271C23.2555 35.2264 23.5317 35.2175 23.8588 35.1639C25.2219 34.9408 28.4388 34.2445 29.7202 33.651C30.479 33.2895 31.0106 32.8833 31.315 32.437C31.6421 31.9907 31.8012 31.4462 31.8012 30.808C31.8012 30.4019 31.7148 30.0716 31.5422 29.8173C31.3695 29.5629 31.106 29.4334 30.7607 29.4334C30.5426 29.4334 30.2745 29.4959 29.9473 29.6253C28.5161 30.2234 26.9349 30.6741 26.0534 30.8616C25.281 31.0223 23.718 31.4775 22.1822 31.5712C21.1326 31.6382 18.9517 31.357 17.6931 30.6965C16.4345 30.0136 15.6484 29.0407 15.6484 27.7196C15.6484 26.9297 15.9074 26.1933 16.4299 25.5149C16.9706 24.8098 17.8294 24.2341 19.0016 23.7878C20.1966 23.3415 21.6915 23.096 23.4953 23.0514C24.7994 23.029 25.4491 22.9666 25.4491 21.5607C25.4491 21.1144 25.3537 20.7931 25.1583 20.6012C24.9629 20.4093 24.6267 20.3022 24.1496 20.2798C22.2594 20.2174 20.8963 19.8648 20.0467 19.2266C19.2197 18.5661 18.8108 17.7359 18.8108 16.7318C18.8108 15.433 19.3651 14.3976 20.4692 13.63C21.5779 12.8623 23.05 12.4741 24.8948 12.4785C25.3401 12.4785 27.0167 12.4785 27.939 13.1569C28.7751 13.7683 28.9659 14.3217 28.9659 15.0894C28.9659 15.3438 28.9477 15.9864 28.766 16.4729C28.6206 16.8567 28.3798 17.3298 28.3798 17.6958C28.3798 18.2269 28.5524 18.633 28.9023 18.9097C29.2476 19.1641 29.7292 19.2935 30.3336 19.2935C31.2014 19.2935 31.8648 18.9097 32.3191 18.1421C32.7962 17.3521 33.037 16.3301 33.037 15.0715C33.0279 13.2506 32.3555 11.7823 31.0106 10.6487ZM24.4282 8.33602C24.3474 8.68217 24.0353 8.92662 23.6742 8.94426C22.0793 9.0222 20.8857 9.33343 19.4515 9.88107C17.7794 10.5193 16.4435 11.4387 15.4485 12.6303C14.4716 13.804 13.9854 15.1563 13.9854 16.6916C13.9854 17.8207 14.3307 18.8383 14.9941 19.7621C15.9301 21.0698 17.9566 21.6812 17.9566 21.6812C17.9566 21.6812 15.085 21.7169 12.6178 23.8458C11.291 24.9883 10.8276 26.6798 10.8276 28.5141C10.8276 29.8574 11.2729 31.0624 12.1634 32.1291C13.0767 33.1957 14.4625 34.0169 16.2982 34.6551C16.7958 34.8287 17.1771 34.9797 17.6275 35.101C18.0664 35.2192 18.3655 35.6423 18.2642 36.078L17.4093 39.7542C17.3092 40.1845 16.8612 40.4453 16.435 40.3055C8.7642 37.7883 3.23964 30.6839 3.23964 22.3105C3.23964 11.8359 11.8862 3.34278 22.5502 3.34278C23.2805 3.34278 24.0014 3.38414 24.7097 3.46356C25.1601 3.51408 25.454 3.94318 25.3526 4.37723L24.4282 8.33602Z" fill="var(--fill-0, white)"/>
</svg>
