<svg preserveAspectRatio="none" width="100%" height="100%" overflow="visible" style="display: block;" viewBox="0 0 16 16" fill="none" xmlns="http://www.w3.org/2000/svg">
<g id="calendar-2">
<path id="Vector" d="M5.33333 3.83333C5.06 3.83333 4.83333 3.60667 4.83333 3.33333V1.33333C4.83333 1.06 5.06 0.833333 5.33333 0.833333C5.60667 0.833333 5.83333 1.06 5.83333 1.33333V3.33333C5.83333 3.60667 5.60667 3.83333 5.33333 3.83333Z" fill="var(--fill-0, #2F324B)"/>
<path id="Vector_2" d="M10.6667 3.83333C10.3933 3.83333 10.1667 3.60667 10.1667 3.33333V1.33333C10.1667 1.06 10.3933 0.833333 10.6667 0.833333C10.94 0.833333 11.1667 1.06 11.1667 1.33333V3.33333C11.1667 3.60667 10.94 3.83333 10.6667 3.83333Z" fill="var(--fill-0, #2F324B)"/>
<path id="Vector_3" d="M13.6667 6.55998H2.33333C2.06 6.55998 1.83333 6.33331 1.83333 6.05998C1.83333 5.78664 2.06 5.55998 2.33333 5.55998H13.6667C13.94 5.55998 14.1667 5.78664 14.1667 6.05998C14.1667 6.33331 13.94 6.55998 13.6667 6.55998Z" fill="var(--fill-0, #2F324B)"/>
<path id="Vector_4" d="M10.6667 15.1667H5.33333C2.9 15.1667 1.5 13.7667 1.5 11.3333V5.66667C1.5 3.23333 2.9 1.83333 5.33333 1.83333H10.6667C13.1 1.83333 14.5 3.23333 14.5 5.66667V11.3333C14.5 13.7667 13.1 15.1667 10.6667 15.1667ZM5.33333 2.83333C3.42667 2.83333 2.5 3.76 2.5 5.66667V11.3333C2.5 13.24 3.42667 14.1667 5.33333 14.1667H10.6667C12.5733 14.1667 13.5 13.24 13.5 11.3333V5.66667C13.5 3.76 12.5733 2.83333 10.6667 2.83333H5.33333Z" fill="var(--fill-0, #2F324B)"/>
<path id="Vector_5" d="M5.66667 9.66667C5.58 9.66667 5.49333 9.64668 5.41333 9.61335C5.33333 9.58002 5.26001 9.53334 5.19334 9.47334C5.13334 9.40667 5.08666 9.33334 5.05332 9.25334C5.01999 9.17334 5 9.08667 5 9.00001C5 8.82667 5.07334 8.65335 5.19334 8.52668C5.26001 8.46668 5.33333 8.42 5.41333 8.38667C5.53333 8.33333 5.66667 8.32 5.80001 8.34667C5.84001 8.35333 5.88 8.36667 5.92 8.38667C5.96 8.4 6 8.42002 6.04 8.44668C6.07333 8.47335 6.10666 8.50001 6.13999 8.52668C6.16666 8.56001 6.19999 8.59334 6.21999 8.62668C6.24666 8.66668 6.26668 8.70667 6.28001 8.74667C6.30001 8.78667 6.31334 8.82667 6.32001 8.86667C6.32667 8.91333 6.33333 8.95334 6.33333 9.00001C6.33333 9.17334 6.25999 9.34667 6.13999 9.47334C6.01333 9.59334 5.84 9.66667 5.66667 9.66667Z" fill="var(--fill-0, #2F324B)"/>
<path id="Vector_6" d="M8 9.66723C7.82667 9.66723 7.65334 9.59389 7.52667 9.47389C7.50001 9.44056 7.47334 9.40723 7.44668 9.3739C7.42001 9.3339 7.39999 9.2939 7.38666 9.2539C7.36666 9.2139 7.35333 9.17391 7.34666 9.13391C7.33999 9.08724 7.33333 9.04723 7.33333 9.00057C7.33333 8.9139 7.35332 8.82723 7.38666 8.74723C7.41999 8.66723 7.46667 8.59391 7.52667 8.52724C7.71334 8.34057 8.01334 8.28056 8.25334 8.38722C8.34 8.42056 8.40666 8.46724 8.47333 8.52724C8.59333 8.65391 8.66667 8.82723 8.66667 9.00057C8.66667 9.04723 8.66001 9.08724 8.65334 9.13391C8.64667 9.17391 8.63334 9.2139 8.61334 9.2539C8.60001 9.2939 8.57999 9.3339 8.55332 9.3739C8.52666 9.40723 8.49999 9.44056 8.47333 9.47389C8.40666 9.53389 8.34 9.58058 8.25334 9.61391C8.17334 9.64724 8.08667 9.66723 8 9.66723Z" fill="var(--fill-0, #2F324B)"/>
<path id="Vector_7" d="M5.66667 12.0006C5.58 12.0006 5.49333 11.9806 5.41333 11.9472C5.33333 11.9139 5.26001 11.8672 5.19334 11.8072C5.13334 11.7406 5.08666 11.6739 5.05332 11.5872C5.01999 11.5072 5 11.4206 5 11.3339C5 11.1606 5.07334 10.9872 5.19334 10.8606C5.26001 10.8006 5.33333 10.7539 5.41333 10.7206C5.66 10.6139 5.95333 10.6739 6.13999 10.8606C6.16666 10.8939 6.19999 10.9272 6.21999 10.9606C6.24666 11.0006 6.26668 11.0406 6.28001 11.0806C6.30001 11.1206 6.31334 11.1606 6.32001 11.2072C6.32667 11.2472 6.33333 11.2939 6.33333 11.3339C6.33333 11.5072 6.25999 11.6806 6.13999 11.8072C6.01333 11.9272 5.84 12.0006 5.66667 12.0006Z" fill="var(--fill-0, #2F324B)"/>
<g id="Vector_8" opacity="0">
</g>
</g>
</svg>
