<svg preserveAspectRatio="none" width="100%" height="100%" overflow="visible" style="display: block;" viewBox="0 0 16 16" fill="none" xmlns="http://www.w3.org/2000/svg">
<g id="cake">
<path id="Vector" d="M14.6667 15.1667H1.33333C1.06 15.1667 0.833333 14.94 0.833333 14.6667C0.833333 14.3933 1.06 14.1667 1.33333 14.1667H14.6667C14.94 14.1667 15.1667 14.3933 15.1667 14.6667C15.1667 14.94 14.94 15.1667 14.6667 15.1667Z" fill="var(--fill-0, #2F324B)"/>
<path id="Vector_2" d="M13.9267 15.1667C13.6533 15.1667 13.4267 14.94 13.4267 14.6667V8.66667C13.4267 7.84 12.6533 7.16667 11.7067 7.16667H4.29333C3.34667 7.16667 2.57333 7.84 2.57333 8.66667V14.6667C2.57333 14.94 2.34667 15.1667 2.07333 15.1667C1.8 15.1667 1.57333 14.94 1.57333 14.6667V8.66667C1.57333 7.28667 2.79333 6.16667 4.29333 6.16667H11.7C13.2 6.16667 14.42 7.28667 14.42 8.66667V14.6667C14.4267 14.94 14.2 15.1667 13.9267 15.1667Z" fill="var(--fill-0, #2F324B)"/>
<path id="Vector_3" d="M12.2933 7.16667C12.02 7.16667 11.7933 6.94 11.7933 6.66667V4.78C11.7933 4.26 11.2933 3.83333 10.6867 3.83333H5.32C4.70667 3.83333 4.21333 4.26 4.21333 4.78V6.66667C4.21333 6.94 3.98667 7.16667 3.71333 7.16667C3.44 7.16667 3.20667 6.94 3.20667 6.66667V4.78C3.20667 3.70667 4.15333 2.83333 5.31333 2.83333H10.68C11.84 2.83333 12.7867 3.70667 12.7867 4.78V6.66667C12.7933 6.94 12.5667 7.16667 12.2933 7.16667Z" fill="var(--fill-0, #2F324B)"/>
<path id="Vector_4" d="M11.5533 11.8332C10.78 11.8332 10.1533 11.2065 10.1533 10.4332V10.2265C10.1533 10.0065 9.9733 9.82648 9.7533 9.82648C9.5333 9.82648 9.3533 10.0065 9.3533 10.2265V10.4332C9.3533 11.2065 8.72663 11.8332 7.9533 11.8332C7.17997 11.8332 6.5533 11.2065 6.5533 10.4332V10.2265C6.5533 10.0065 6.3733 9.82648 6.1533 9.82648C5.9333 9.82648 5.7533 10.0065 5.7533 10.2265V10.4332C5.7533 11.2065 5.12663 11.8332 4.3533 11.8332C3.57997 11.8332 2.9533 11.2065 2.9533 10.4332V10.2132C2.9533 9.99982 2.77997 9.81982 2.55997 9.81315H2.3133C2.03997 9.80648 1.8133 9.57982 1.81997 9.30648C1.82663 9.03315 2.04663 8.81315 2.31997 8.81315H2.32663H2.5733C3.3333 8.82648 3.9533 9.45315 3.9533 10.2132V10.4332C3.9533 10.6532 4.1333 10.8332 4.3533 10.8332C4.5733 10.8332 4.7533 10.6532 4.7533 10.4332V10.2265C4.7533 9.45315 5.37997 8.82648 6.1533 8.82648C6.92663 8.82648 7.5533 9.45315 7.5533 10.2265V10.4332C7.5533 10.6532 7.7333 10.8332 7.9533 10.8332C8.1733 10.8332 8.3533 10.6532 8.3533 10.4332V10.2265C8.3533 9.45315 8.97997 8.82648 9.7533 8.82648C10.5266 8.82648 11.1533 9.45315 11.1533 10.2265V10.4332C11.1533 10.6532 11.3333 10.8332 11.5533 10.8332C11.7733 10.8332 11.9533 10.6532 11.9533 10.4332V10.2265C11.9533 9.45315 12.58 8.82648 13.3533 8.82648H13.6533C13.9266 8.82648 14.1533 9.05315 14.1533 9.32648C14.1533 9.59982 13.9266 9.82648 13.6533 9.82648H13.3533C13.1333 9.82648 12.9533 10.0065 12.9533 10.2265V10.4332C12.9533 11.2065 12.3266 11.8332 11.5533 11.8332Z" fill="var(--fill-0, #2F324B)"/>
<path id="Vector_5" d="M5.33333 3.83333C5.06 3.83333 4.83333 3.60667 4.83333 3.33333V2C4.83333 1.72667 5.06 1.5 5.33333 1.5C5.60667 1.5 5.83333 1.72667 5.83333 2V3.33333C5.83333 3.60667 5.60667 3.83333 5.33333 3.83333Z" fill="var(--fill-0, #2F324B)"/>
<path id="Vector_6" d="M10.6667 3.83333C10.3933 3.83333 10.1667 3.60667 10.1667 3.33333V2C10.1667 1.72667 10.3933 1.5 10.6667 1.5C10.94 1.5 11.1667 1.72667 11.1667 2V3.33333C11.1667 3.60667 10.94 3.83333 10.6667 3.83333Z" fill="var(--fill-0, #2F324B)"/>
<path id="Vector_7" d="M8 3.83333C7.72667 3.83333 7.5 3.60667 7.5 3.33333V1.33333C7.5 1.06 7.72667 0.833333 8 0.833333C8.27333 0.833333 8.5 1.06 8.5 1.33333V3.33333C8.5 3.60667 8.27333 3.83333 8 3.83333Z" fill="var(--fill-0, #2F324B)"/>
<g id="Vector_8" opacity="0">
</g>
</g>
</svg>
