<svg preserveAspectRatio="none" width="100%" height="100%" overflow="visible" style="display: block;" viewBox="0 0 16 16" fill="none" xmlns="http://www.w3.org/2000/svg">
<g id="location">
<path id="Vector" d="M7.99992 9.4463C6.57992 9.4463 5.41992 8.29297 5.41992 6.8663C5.41992 5.43964 6.57992 4.29297 7.99992 4.29297C9.41992 4.29297 10.5799 5.4463 10.5799 6.87297C10.5799 8.29964 9.41992 9.4463 7.99992 9.4463ZM7.99992 5.29297C7.13326 5.29297 6.41992 5.99964 6.41992 6.87297C6.41992 7.7463 7.12659 8.45297 7.99992 8.45297C8.87326 8.45297 9.57992 7.7463 9.57992 6.87297C9.57992 5.99964 8.86659 5.29297 7.99992 5.29297Z" fill="var(--fill-0, #2F324B)"/>
<path id="Vector_2" d="M7.99979 15.1733C7.01313 15.1733 6.01979 14.8 5.24646 14.06C3.27979 12.1667 1.10646 9.14667 1.92646 5.55333C2.66646 2.29333 5.51313 0.833333 7.99979 0.833333C7.99979 0.833333 7.99979 0.833333 8.00646 0.833333C10.4931 0.833333 13.3398 2.29333 14.0798 5.56C14.8931 9.15333 12.7198 12.1667 10.7531 14.06C9.97979 14.8 8.98646 15.1733 7.99979 15.1733ZM7.99979 1.83333C6.05979 1.83333 3.56646 2.86667 2.90646 5.77333C2.18646 8.91333 4.15979 11.62 5.94646 13.3333C7.09979 14.4467 8.90646 14.4467 10.0598 13.3333C11.8398 11.62 13.8131 8.91333 13.1065 5.77333C12.4398 2.86667 9.93979 1.83333 7.99979 1.83333Z" fill="var(--fill-0, #2F324B)"/>
<path id="Vector_3" opacity="0" d="M16 0H0V16H16V0Z" fill="var(--fill-0, #2F324B)"/>
</g>
</svg>
