<svg width="96" height="42" viewBox="0 0 96 42" fill="none" xmlns="http://www.w3.org/2000/svg">
<path d="M52.9629 25.552C52.9629 18.4827 58.7998 12.752 65.9999 12.752C73.2001 12.752 79.037 18.4827 79.037 25.552C79.037 32.6212 73.2001 38.352 65.9999 38.352C58.7998 38.352 52.9629 32.6212 52.9629 25.552Z" fill="#FF0283"/>
<path d="M70.1718 19.7492C69.8151 19.4434 69.1313 19.2248 68.5838 19.0819L68.5065 19.0663L69.2222 15.8485H69.2199L69.3424 15.3081C69.3863 15.1147 69.2736 14.9195 69.0799 14.8641C68.0839 14.5793 67.0301 14.4248 65.9416 14.4248C59.7145 14.4226 54.6665 19.4189 54.6665 25.5801C54.6665 31.1583 58.8039 35.7768 64.2071 36.6022C64.4066 36.6327 64.5935 36.5025 64.637 36.3089L64.7126 35.9721L65.5339 32.3658C65.5723 32.1971 65.7205 32.0744 65.8962 32.0656L66.0034 32.0603C66.2942 32.038 66.4323 32.0335 66.5959 32.0068C67.2775 31.8952 68.8859 31.5471 69.5266 31.2503C69.906 31.0695 70.1718 30.8665 70.324 30.6433C70.4876 30.4202 70.5671 30.1479 70.5671 29.8288C70.5671 29.6258 70.5239 29.4606 70.4376 29.3334C70.3513 29.2062 70.2195 29.1415 70.0468 29.1415C69.9378 29.1415 69.8037 29.1728 69.6402 29.2375C68.9245 29.5365 68.1339 29.7619 67.6932 29.8556C67.307 29.9359 66.5255 30.1635 65.7576 30.2104C65.2328 30.2439 64.1423 30.1033 63.513 29.773C62.8837 29.4316 62.4907 28.9452 62.4907 28.2846C62.4907 27.8897 62.6202 27.5215 62.8815 27.1823C63.1518 26.8297 63.5812 26.5418 64.1673 26.3187C64.7648 26.0955 65.5122 25.9728 66.4142 25.9505C67.0662 25.9393 67.3911 25.9081 67.3911 25.2052C67.3911 24.982 67.3433 24.8213 67.2457 24.7254C67.148 24.6294 66.9799 24.5759 66.7413 24.5647C65.7962 24.5335 65.1147 24.3572 64.6898 24.0381C64.2764 23.7078 64.0719 23.2928 64.0719 22.7907C64.0719 22.1413 64.3491 21.6236 64.9011 21.2398C65.4555 20.856 66.1915 20.6618 67.1139 20.6641C67.3365 20.6641 68.1748 20.6641 68.636 21.0033C69.054 21.309 69.1495 21.5857 69.1495 21.9695C69.1495 22.0967 69.1404 22.418 69.0495 22.6613C68.9768 22.8532 68.8564 23.0897 68.8564 23.2727C68.8564 23.5382 68.9427 23.7413 69.1177 23.8797C69.2903 24.0069 69.5311 24.0716 69.8333 24.0716C70.2672 24.0716 70.5989 23.8797 70.8261 23.4958C71.0646 23.1009 71.185 22.5899 71.185 21.9606C71.1805 21.0501 70.8442 20.316 70.1718 19.7492ZM66.8806 18.5928C66.8402 18.7659 66.6842 18.8881 66.5036 18.8969C65.7061 18.9359 65.1094 19.0915 64.3922 19.3653C63.5562 19.6844 62.8883 20.1441 62.3907 20.7399C61.9023 21.3268 61.6592 22.003 61.6592 22.7706C61.6592 23.3352 61.8319 23.844 62.1636 24.3059C62.6316 24.9597 63.6448 25.2654 63.6448 25.2654C63.6448 25.2654 62.209 25.2833 60.9754 26.3477C60.312 26.919 60.0803 27.7647 60.0803 28.6818C60.0803 29.3535 60.3029 29.956 60.7482 30.4893C61.2048 31.0227 61.8978 31.4333 62.8156 31.7524C63.0644 31.8392 63.255 31.9147 63.4802 31.9753C63.6997 32.0344 63.8493 32.2459 63.7986 32.4638L63.3711 34.3019C63.3211 34.517 63.0971 34.6475 62.884 34.5775C59.0486 33.319 56.2863 29.7668 56.2863 25.5801C56.2863 20.3427 60.6096 16.0962 65.9416 16.0962C66.3068 16.0962 66.6672 16.1169 67.0213 16.1566C67.2466 16.1818 67.3935 16.3964 67.3428 16.6134L66.8806 18.5928Z" fill="white"/>
<path d="M71.7829 16.0786C71.5605 15.9444 71.2754 16.0721 71.22 16.3231L71.0754 16.9793C71.0049 17.2991 71.1498 17.6253 71.423 17.8114C73.9316 19.5203 75.5747 22.3735 75.5747 25.6071C75.5747 30.2724 72.1511 34.147 67.6425 34.9313C67.3147 34.9883 67.0442 35.2262 66.9734 35.5467L66.824 36.2235C66.7689 36.4732 66.9724 36.7054 67.2302 36.6765C72.8314 36.05 77.1853 31.3353 77.1853 25.6071C77.1853 21.5672 75.0219 18.0326 71.7829 16.0786Z" fill="white"/>
<path d="M22.4863 29.2411C22.6704 29.1706 22.8238 29.1354 22.9465 29.1354C23.1429 29.1354 23.2902 29.2059 23.3884 29.3467C23.4866 29.4876 23.5357 29.6695 23.5357 29.8926C23.5357 30.2447 23.4436 30.544 23.2595 30.7905C23.0877 31.0371 22.787 31.2601 22.3574 31.4596C21.6333 31.7883 20.6944 32.0524 19.5408 32.252C18.3871 32.4398 17.2518 32.5337 16.135 32.5337C14.5886 32.5337 13.2937 32.3694 12.2505 32.0407C11.2073 31.7003 10.428 31.2366 9.91251 30.6497C9.40931 30.0628 9.15771 29.3995 9.15771 28.66C9.15771 27.6505 9.49523 26.7936 10.1702 26.0893C10.8575 25.3733 11.8639 24.8568 13.1894 24.5399C12.4653 24.3403 11.9069 23.9881 11.5142 23.4834C11.1337 22.9786 10.9435 22.4152 10.9435 21.7931C10.9435 20.9479 11.2196 20.2025 11.7719 19.5569C12.3364 18.8996 13.0912 18.3948 14.0363 18.0427C14.9813 17.6905 16.0184 17.5144 17.1475 17.5144C18.6694 17.5144 19.8108 17.8314 20.5717 18.4652C21.3326 19.0874 21.7131 19.8973 21.7131 20.8951C21.7131 21.5876 21.5781 22.1511 21.3081 22.5854C21.0504 23.008 20.676 23.2193 20.1851 23.2193C19.8414 23.2193 19.5714 23.1489 19.3751 23.008C19.1787 22.8554 19.0805 22.6324 19.0805 22.3389C19.0805 22.1394 19.1112 21.9222 19.1726 21.6874C19.2339 21.3001 19.2646 21.0359 19.2646 20.8951C19.2646 20.4725 19.0989 20.1321 18.7676 19.8738C18.4362 19.6039 17.8839 19.4689 17.1107 19.4689C16.0675 19.4689 15.2329 19.6802 14.607 20.1027C13.981 20.5253 13.6681 21.0946 13.6681 21.8107C13.6681 22.3624 13.9013 22.8202 14.3676 23.1841C14.8463 23.5362 15.6195 23.7299 16.6873 23.7651C16.9573 23.7769 17.1475 23.8356 17.258 23.9412C17.3684 24.0468 17.4236 24.2229 17.4236 24.4694C17.4236 25.2442 17.0555 25.6374 16.3191 25.6491C15.3004 25.6726 14.4536 25.8076 13.7785 26.0541C13.1158 26.3006 12.631 26.6175 12.3242 27.0049C12.0296 27.3805 11.8823 27.7855 11.8823 28.2198C11.8823 28.9476 12.2383 29.4993 12.9501 29.875C13.6619 30.2388 14.7911 30.4208 16.3375 30.4208C17.3561 30.4208 18.43 30.3093 19.5592 30.0862C20.7006 29.8515 21.6763 29.5698 22.4863 29.2411Z" fill="#14142B"/>
<path d="M29.0686 28.5192C29.2282 28.5192 29.3509 28.5896 29.4368 28.7305C29.535 28.8713 29.5841 29.065 29.5841 29.3115C29.5841 29.781 29.4675 30.1449 29.2343 30.4032C28.7066 31.0253 28.1297 31.5359 27.5038 31.935C26.8901 32.3341 26.1906 32.5337 25.4051 32.5337C24.3251 32.5337 23.5212 32.0642 22.9934 31.1251C22.478 30.186 22.2202 28.9711 22.2202 27.4803C22.2202 26.0482 22.4105 24.4166 22.7909 22.5854C23.1837 20.7542 23.7544 19.1813 24.503 17.8666C25.264 16.5519 26.166 15.8945 27.2092 15.8945C27.7983 15.8945 28.2586 16.1586 28.59 16.6869C28.9336 17.2034 29.1054 17.9487 29.1054 18.923C29.1054 20.3199 28.7004 21.9398 27.8904 23.7827C27.0804 25.6257 25.9819 27.451 24.5951 29.2587C24.681 29.74 24.8221 30.0862 25.0185 30.2975C25.2149 30.4971 25.4726 30.5969 25.7917 30.5969C26.2949 30.5969 26.7367 30.4619 27.1172 30.1919C27.4977 29.9102 27.9824 29.4348 28.5716 28.7657C28.7188 28.6013 28.8845 28.5192 29.0686 28.5192ZM26.8042 17.6377C26.5219 17.6377 26.2028 18.1248 25.8469 19.0991C25.491 20.0734 25.178 21.2825 24.908 22.7263C24.638 24.1701 24.4907 25.5552 24.4662 26.8817C25.3376 25.5083 26.031 24.1349 26.5465 22.7615C27.062 21.3764 27.3197 20.1145 27.3197 18.9759C27.3197 18.0837 27.1479 17.6377 26.8042 17.6377Z" fill="#14142B"/>
<path d="M40.7251 28.5192C40.8846 28.5192 41.0074 28.5896 41.0933 28.7305C41.1915 28.8713 41.2406 29.065 41.2406 29.3115C41.2406 29.781 41.124 30.1449 40.8908 30.4032C40.3876 30.9901 39.8292 31.4948 39.2155 31.9174C38.6141 32.3283 38.0066 32.5337 37.3929 32.5337C36.5952 32.5337 36.0122 32.2637 35.644 31.7237C35.2881 31.1838 35.1101 30.4677 35.1101 29.5756C35.1101 29.1178 35.1592 28.5544 35.2574 27.8853C35.3679 27.2162 35.509 26.5589 35.6808 25.9132C34.4535 25.9132 32.9992 25.9661 31.3178 26.0717C31.0477 27.7151 30.9127 29.2469 30.9127 30.6673C30.9127 31.759 30.9741 32.8976 31.0968 34.0832C31.2318 35.2805 31.4282 35.8791 31.6859 35.8791C31.8087 35.8791 31.9375 35.6737 32.0726 35.2629C32.2076 34.852 32.318 34.2886 32.4039 33.5725C32.4898 32.8565 32.5328 32.0642 32.5328 31.1955C32.5328 30.2447 32.4776 29.2176 32.3671 28.1142C32.3426 27.7855 32.3978 27.5449 32.5328 27.3923C32.6801 27.2279 32.8948 27.1458 33.1771 27.1458C33.4349 27.1458 33.6251 27.2103 33.7478 27.3395C33.8706 27.4686 33.9442 27.6857 33.9687 27.9909C34.0301 28.8478 34.0608 29.8691 34.0608 31.0547C34.0608 32.968 33.8153 34.6055 33.3244 35.9672C32.8458 37.3288 32.0971 38.0097 31.0784 38.0097C30.207 38.0097 29.5811 37.4051 29.2006 36.1961C28.8202 34.9988 28.6299 33.1969 28.6299 30.7905C28.6299 29.3702 28.7465 27.8501 28.9797 26.2302C28.8938 26.2419 28.7834 26.2478 28.6484 26.2478C28.2679 26.2478 28.0102 26.1832 27.8752 26.0541C27.7524 25.925 27.6911 25.7254 27.6911 25.4554C27.6911 25.162 27.7708 24.9272 27.9304 24.7511C28.1022 24.5751 28.4213 24.4694 28.8877 24.4342C28.9736 24.4225 29.1086 24.4166 29.2927 24.4166C29.6241 22.8319 30.0475 21.394 30.563 20.1027C31.0784 18.8115 31.6675 17.7903 32.3303 17.039C32.993 16.276 33.6926 15.8945 34.429 15.8945C35.0058 15.8945 35.4477 16.1117 35.7545 16.546C36.0736 16.9686 36.2331 17.5144 36.2331 18.1835C36.2331 20.5429 35.239 22.5502 33.2508 24.2053C34.7481 24.1466 35.957 24.1173 36.8775 24.1173C37.2211 24.1173 37.5034 24.1818 37.7243 24.311C37.9452 24.4283 38.0557 24.6631 38.0557 25.0153C38.0557 25.25 38.0127 25.608 37.9268 26.0893C37.8532 26.5706 37.7673 27.0519 37.6691 27.5331C37.4482 28.5309 37.3377 29.1883 37.3377 29.5052C37.3377 29.8573 37.3868 30.1273 37.485 30.3151C37.5832 30.503 37.7489 30.5969 37.9821 30.5969C38.1907 30.5969 38.4546 30.4619 38.7737 30.1919C39.105 29.9102 39.5898 29.4348 40.228 28.7657C40.3753 28.6013 40.541 28.5192 40.7251 28.5192ZM34.0792 17.5849C33.7846 17.5849 33.4103 18.1953 32.9562 19.416C32.5021 20.6368 32.091 22.1159 31.7228 23.8532C32.3364 23.4423 32.8458 22.9317 33.2508 22.3213C33.6681 21.7109 33.9749 21.0829 34.1713 20.4373C34.3799 19.7799 34.4842 19.1754 34.4842 18.6237C34.4842 17.9311 34.3492 17.5849 34.0792 17.5849ZM37.6507 23.0784C37.1352 23.0784 36.7486 22.9669 36.4909 22.7439C36.2331 22.5091 36.1043 22.1863 36.1043 21.7755C36.1043 21.3646 36.27 21.0242 36.6013 20.7542C36.945 20.4725 37.3684 20.3316 37.8716 20.3316C38.3257 20.3316 38.6939 20.4373 38.9762 20.6486C39.2585 20.8599 39.3996 21.1592 39.3996 21.5466C39.3996 22.0161 39.24 22.3917 38.9209 22.6735C38.6018 22.9434 38.1784 23.0784 37.6507 23.0784Z" fill="#14142B"/>
<path d="M46.3366 29.0474C46.4961 29.0474 46.6189 29.1178 46.7048 29.2587C46.803 29.3995 46.8521 29.5932 46.8521 29.8397C46.8521 30.2623 46.7477 30.6262 46.5391 30.9314C46.1954 31.4362 45.7413 31.8294 45.1768 32.1111C44.6245 32.3928 43.9617 32.5337 43.1885 32.5337C42.0103 32.5337 41.096 32.1992 40.4455 31.5301C39.795 30.8492 39.4698 29.9336 39.4698 28.7833C39.4698 27.9733 39.6477 27.2221 40.0037 26.5295C40.3596 25.8252 40.8505 25.2676 41.4764 24.8568C42.1146 24.4459 42.8326 24.2405 43.6304 24.2405C44.3422 24.2405 44.9129 24.4459 45.3425 24.8568C45.772 25.2559 45.9868 25.8017 45.9868 26.4943C45.9868 27.3042 45.68 28.0027 45.0663 28.5896C44.4649 29.1648 43.434 29.6226 41.9735 29.963C42.268 30.503 42.7651 30.7729 43.4647 30.7729C43.9679 30.7729 44.379 30.6614 44.6981 30.4384C45.0295 30.2154 45.41 29.8397 45.8395 29.3115C45.9868 29.1354 46.1525 29.0474 46.3366 29.0474ZM43.3174 25.9661C42.8633 25.9661 42.4767 26.2184 42.1576 26.7232C41.8508 27.2279 41.6973 27.8383 41.6973 28.5544V28.5896C42.4215 28.4253 42.9922 28.1788 43.4094 27.8501C43.8267 27.5214 44.0354 27.1399 44.0354 26.7056C44.0354 26.4826 43.9679 26.3065 43.8329 26.1774C43.7101 26.0365 43.5383 25.9661 43.3174 25.9661Z" fill="#14142B"/>
</svg>
